<svg xmlns="http://www.w3.org/2000/svg" xmlns:xlink="http://www.w3.org/1999/xlink" width="358" height="106" viewBox="0 0 358 106">
    <defs>
        <path id="a" d="M33.246.093H.215v39.522h33.031V.093z"/>
        <path id="c" d="M.384 55.633h52.86V.337H.383z"/>
    </defs>
    <g fill="none" fill-rule="evenodd">
        <path fill="#004C99" d="M0 59.481c0 .99 19.784 1.608 23.175.34C28.77 57.723 39.53 45.83 39.53 44.01c0-1.78-10.379-13.96-16.355-15.806C18.797 26.852 0 27.694 0 28.882c0 1.613 15.655 16.268 15.655 15.13C15.655 42.912 0 57.584 0 59.482"/>
        <path fill="#FF9650" d="M62.764 59.481c0 .99 19.783 1.608 23.174.34 5.596-2.097 16.355-13.99 16.355-15.81 0-1.78-10.379-13.96-16.355-15.806-4.377-1.353-23.174-.511-23.174.677 0 1.613 15.654 16.268 15.654 15.13 0-1.1-15.654 13.572-15.654 15.47"/>
        <g transform="translate(27.217 .034)">
            <mask id="b" fill="#fff">
                <use xlink:href="#a"/>
            </mask>
            <path fill="#8D9DD0" d="M1.27.093c-.993 0-1.61 19.782-.34 23.17 2.096 5.595 13.993 16.352 15.813 16.352 1.782 0 13.963-10.375 15.808-16.351 1.353-4.377.513-23.17-.677-23.17-1.612 0-16.27 15.651-15.13 15.651C17.84 15.745 3.165.093 1.268.093" mask="url(#b)"/>
        </g>
        <path fill="#FF9650" d="M28.486 87.96c-.991 0-1.609-19.782-.34-23.169 2.097-5.594 13.994-16.353 15.814-16.353 1.782 0 13.963 10.378 15.809 16.353 1.353 4.376.512 23.169-.678 23.169-1.612 0-16.27-15.652-15.13-15.652 1.097 0-13.578 15.652-15.475 15.652"/>
        <path fill="#004C99" d="M231.112 73.598c.1-.299 3.494-.317 7.48-.277 4.47.047 9.687.05 11.85-.076 1.13.23 1.13-7.616 0-7.387 0 0-4.386-.094-8.991-.105-4.843-.012-9.606.203-10.115-.043-.357-.292-.418-13.583-.06-14.02 0-.943 5.126-.953 10.69-.933 4.149-.115 10.245.43 11.214.43 1.397-1.564 1.522-6.887-.039-7.32-3.306-.917-32.74-1.462-32.74.23 0 1.832-.401 5.579-.401 26.542 0 20.412.34 26.298.34 26.298-.329 1.626 10.99 1.626 10.66 0 0 0-.178-22.478.112-23.339M282.343 70.543c0 20.411-.34 26.296-.34 26.296.327 1.628-10.99 1.628-10.66 0 0 0-.343-5.885-.343-26.296 0-20.964.342-26.321.342-26.321-.33-1.63 10.988-1.63 10.66 0 0 0 .34 5.357.34 26.32"/>
        <g transform="translate(291.526 42.492)">
            <mask id="d" fill="#fff">
                <use xlink:href="#c"/>
            </mask>
            <path fill="#004C99" d="M25.55 18.717c-.007-.528-8.081 17.592-7.603 17.07-.478.522 15.909.522 15.429 0 .48.522-7.833-17.598-7.827-17.07m-.19-16.97c1.084-2.098 2.701-1.648 3.654 0 1.53 2.654 25.786 54.245 24.152 52.618.585 1.753-10.398 1.627-11.33 0 .932 1.627-4.611-10.719-5.22-11.626.64.985-22.506.907-21.766 0-.618 1.268-4.256 9.662-5.219 11.626-.919 1.873-9.402 1.42-9.244 0C.68 52.623 22.96 4.589 25.358 1.747" mask="url(#d)"/>
        </g>
        <path fill="#004C99" d="M182.114 73.598c.1-.299 3.496-.317 7.48-.277 4.473.047 9.689.05 11.851-.076 1.129.23 1.129-7.616 0-7.387 0 0-4.387-.094-8.995-.105-4.842-.012-9.604.203-10.11-.043-.36-.292-.422-13.583-.063-14.02 0-.943 5.124-.953 10.694-.933 4.147-.115 10.24.43 11.21.43 1.396-1.564 1.523-6.887-.036-7.32-3.307-.917-32.742-1.462-32.742.23 0 1.832-.403 5.579-.403 26.542 0 20.412.342 26.298.342 26.298-.329 1.626 10.99 1.626 10.662 0 0 0-.18-22.478.11-23.339M119.37 97c0 1.697 29.465 1.214 32.771.298 1.561-.432 1.436-5.76.04-7.32-.972 0-7.065.543-11.213.433-5.569.014-11.024-.021-11.024-.96-.026-6.626-.012-15.327.165-15.853.104-.299 3.496-.318 7.484-.277 4.47.047 9.688.05 11.848-.076 1.13.23 1.13-7.616 0-7.387 0 0-4.386-.094-8.991-.105-4.844-.012-9.606.203-10.114-.043-.36-.293-.42-13.583-.064-14.021 0-.942 5.127-.952 10.696-.933 4.148-.114 10.241.43 11.212.43 1.397-1.563 1.522-6.886-.039-7.32-3.306-.916-32.74-1.461-32.74.231 0 1.832-.401 5.579-.401 26.542 0 20.412.37 26.361.37 26.361"/>
    </g>
</svg>
